<svg width="24" height="24" viewBox="0 0 24 24" fill="none" xmlns="http://www.w3.org/2000/svg">
<path d="M12 0C5.3832 0 0 5.3832 0 12C0 18.6168 5.3832 24 12 24C18.6168 24 24 18.6168 24 12C24 5.3832 18.6168 0 12 0ZM12 21.4466C6.79119 21.4466 2.55315 17.2091 2.55315 12C2.55315 6.79094 6.79119 2.5534 12 2.5534C17.2088 2.5534 21.4468 6.79094 21.4468 12C21.4468 17.2091 17.2088 21.4466 12 21.4466Z" fill="#E6232D"/>
<path d="M18.254 11.6295H12.8612V5.14532C12.8612 4.59966 12.4188 4.15726 11.8731 4.15726C11.3275 4.15726 10.8851 4.59966 10.8851 5.14532V12.6175C10.8851 13.1632 11.3275 13.6056 11.8731 13.6056H18.254C18.7997 13.6056 19.2421 13.1632 19.2421 12.6175C19.2421 12.0719 18.7997 11.6295 18.254 11.6295Z" fill="#E6232D"/>
</svg>
