<?xml version="1.0" encoding="utf-8"?>
<!-- Generator: Adobe Illustrator 21.0.0, SVG Export Plug-In . SVG Version: 6.00 Build 0)  -->
<svg version="1.1" id="Layer_1" xmlns="http://www.w3.org/2000/svg" xmlns:xlink="http://www.w3.org/1999/xlink" x="0px" y="0px"
	 viewBox="0 0 544.8 544.1" style="enable-background:new 0 0 544.8 544.1;" xml:space="preserve">
<style type="text/css">
	.st0{fill:none;stroke:#58595B;stroke-width:10;stroke-miterlimit:10;stroke-dasharray:40,18;}
	.st1{fill:#ED1F24;}
</style>
<circle class="st0" cx="272.2" cy="272.1" r="267"/>
<path class="st1" d="M353.5,204.4c-5.7,0-11.4,0.5-16.8,1.5v-12c0.2-1.3,0.3-2.6,0.3-4c0-31.6-46.5-56.3-105.8-56.3
	s-105.7,24.1-105.7,55.7c0,1.3,0,3.2,0.2,4.6v168.4c0.1,0.8,0.2,1.5,0.4,2.3c5.7,28.5,49.8,50,105.1,50c37.2,0,69.3-9.7,88.1-24.8
	c10.6,4.1,22.2,6.3,34.2,6.3c52.9,0,95.9-43,95.9-95.9C449.4,247.5,406.4,204.4,353.5,204.4z M137.7,188.1
	c2.1-23.1,44.1-42.3,93.5-42.3s91.3,19.2,93.5,42.3c0.1,0.6,0.1,1.2,0.1,1.9c0,1.1-0.1,2.1-0.3,3.2c-3.6,22.5-44.9,41-93.3,41
	c-48.4,0-89.7-18.4-93.3-40.9c-0.2-1.1-0.3-2.1-0.3-3.2C137.6,189.3,137.6,188.7,137.7,188.1z M258.8,315.2c-8.8,1.3-18,2-27.6,2
	c-48.5,0-89.8-18.5-93.3-41v-17.8c17.7,17.7,52.4,29.4,93.3,29.4c9.6,0,18.8-0.6,27.5-1.9c-0.7,4.7-1.1,9.5-1.1,14.4
	C257.7,305.4,258.1,310.3,258.8,315.2z M231.2,329.4c10.6,0,20.7-0.8,30.3-2.3c2.9,9.9,7.3,19.2,13.1,27.5
	c-13,3.3-27.8,5.2-43.4,5.2c-48.5,0-89.8-17.5-93.3-40V300C155.5,317.7,190.3,329.4,231.2,329.4z M231.2,275.6
	c-48.5,0-89.8-18.5-93.3-41v-17.8c17.7,17.7,52.4,29.4,93.3,29.4c17.2,0,33.3-2.1,47.5-5.8c-7.7,9.6-13.6,20.7-17.2,32.7
	C252,274.8,241.8,275.6,231.2,275.6z M231.2,402.5c-48.5,0-89.8-18.5-93.3-41v-18.9c17.7,17.7,52.4,29.4,93.3,29.4
	c18.9,0,36.5-2.5,51.7-7c6.9,7.5,14.9,13.9,23.9,18.9C289.6,395.1,261.8,402.5,231.2,402.5z M353.5,384c-8.6,0-16.9-1.3-24.7-3.7
	c-4.1-1.3-8.1-2.8-11.9-4.7c-7.9-3.8-15.1-8.9-21.4-14.9c-3.2-3-6.1-6.3-8.7-9.8c-5.9-7.7-10.5-16.5-13.4-26
	c-1.2-3.9-2.1-7.9-2.7-11.9c-0.6-4.1-1-8.3-1-12.6c0-5.7,0.6-11.2,1.7-16.6c0.9-4.7,2.3-9.2,4-13.5c8.7-22.3,26.6-40.1,49.1-48.4
	c3.9-1.5,8-2.6,12.2-3.5c5.4-1.1,11.1-1.7,16.8-1.7c46.1,0,83.7,37.6,83.7,83.7C437.2,346.5,399.7,384,353.5,384z"/>
<path class="st1" d="M324.8,189.9c0,1.1-0.1,2.1-0.3,3.2v-5h0.2C324.7,188.7,324.8,189.3,324.8,189.9z"/>
<g>
	<g>
		<path class="st1" d="M393.7,287.2c0,9.4-3.2,16.6-9.6,21.6c-6.4,5-15.5,7.6-27.4,7.6h-10.9v36.3h-10.7v-92.4h24
			C382.1,260.3,393.7,269.3,393.7,287.2z M345.8,307.1h9.7c9.5,0,16.4-1.5,20.7-4.6c4.3-3.1,6.4-8,6.4-14.8c0-6.1-2-10.7-6-13.7
			c-4-3-10.2-4.5-18.7-4.5h-12V307.1z"/>
	</g>
	<rect x="322.1" y="307.1" class="st1" width="30.8" height="9.1"/>
	<rect x="322.1" y="324.2" class="st1" width="37.8" height="9.1"/>
</g>
</svg>
