<svg width="75" height="75" xmlns="http://www.w3.org/2000/svg">
    <g>
        <style type="text/css">
            .st0{fill:none;stroke:#58595B;stroke-width:10;stroke-miterlimit:10;stroke-dasharray:40,18;}
            .st1{fill:#ED1F24;}
        </style>
        <g id="svg_9">
            <circle transform="matrix(0.13476768362015523,0,0,0.13476768362015523,0,0) " id="svg_5" r="267"
                    cy="276.57593" cx="276.57833" class="st0"/>
            <path id="svg_6"
                  d="m48.23043,28.14972c-0.76818,0 -1.53635,0.06738 -2.2641,0.20215l0,-1.61721c0.02695,-0.1752 0.04043,-0.3504 0.04043,-0.53907c0,-4.25866 -6.2667,-7.58742 -14.25842,-7.58742s-14.24494,3.2479 -14.24494,7.50656c0,0.1752 0,0.43126 0.02695,0.61993l0,22.69488c0.01348,0.10781 0.02695,0.20215 0.05391,0.30997c0.76818,3.84088 6.71143,6.73838 14.16408,6.73838c5.01336,0 9.3394,-1.30725 11.87303,-3.34224c1.42854,0.55255 2.99184,0.84904 4.60905,0.84904c7.12921,0 12.92422,-5.79501 12.92422,-12.92422c0,-7.10226 -5.79501,-12.91074 -12.92422,-12.91074zm-29.08287,-2.19671c0.28301,-3.11313 5.94325,-5.70067 12.60078,-5.70067s12.30429,2.58754 12.60078,5.70067c0.01348,0.08086 0.01348,0.16172 0.01348,0.25606c0,0.14824 -0.01348,0.28301 -0.04043,0.43126c-0.48516,3.03227 -6.05107,5.52548 -12.57382,5.52548c-6.52276,0 -12.08866,-2.47973 -12.57382,-5.512c-0.02695,-0.14824 -0.04043,-0.28301 -0.04043,-0.43126c0,-0.10781 0,-0.18867 0.01348,-0.26954zm16.32037,17.12897c-1.18596,0.1752 -2.42582,0.26954 -3.71959,0.26954c-6.53623,0 -12.10214,-2.4932 -12.57382,-5.52548l0,-2.39886c2.38539,2.38539 7.06183,3.96217 12.57382,3.96217c1.29377,0 2.53363,-0.08086 3.70611,-0.25606c-0.09434,0.63341 -0.14824,1.28029 -0.14824,1.94065c0.01348,0.68732 0.06738,1.34768 0.16172,2.00804zm-3.71959,1.9137c1.42854,0 2.78969,-0.10781 4.08346,-0.30997c0.39083,1.3342 0.9838,2.58754 1.76546,3.70611c-1.75198,0.44473 -3.74654,0.70079 -5.84892,0.70079c-6.53623,0 -12.10214,-2.35843 -12.57382,-5.39071l0,-2.6684c2.37191,2.38539 7.06183,3.96217 12.57382,3.96217zm0,-7.2505c-6.53623,0 -12.10214,-2.4932 -12.57382,-5.52548l0,-2.39886c2.38539,2.38539 7.06183,3.96217 12.57382,3.96217c2.318,0 4.48776,-0.28301 6.40146,-0.78165c-1.03771,1.29377 -1.83284,2.78969 -2.318,4.4069c-1.28029,0.22911 -2.65492,0.33692 -4.08346,0.33692zm0,17.10202c-6.53623,0 -12.10214,-2.4932 -12.57382,-5.52548l0,-2.54711c2.38539,2.38539 7.06183,3.96217 12.57382,3.96217c2.54711,0 4.91902,-0.33692 6.96749,-0.94337c0.9299,1.01076 2.00804,1.87327 3.22095,2.54711c-2.318,1.5094 -6.06455,2.50668 -10.18844,2.50668zm16.48209,-2.4932c-1.159,0 -2.27757,-0.1752 -3.32876,-0.49864c-0.55255,-0.1752 -1.09162,-0.37735 -1.60374,-0.63341c-1.06466,-0.51212 -2.03499,-1.19943 -2.88403,-2.00804c-0.43126,-0.4043 -0.82208,-0.84904 -1.17248,-1.32072c-0.79513,-1.03771 -1.41506,-2.22367 -1.80589,-3.50396c-0.16172,-0.52559 -0.28301,-1.06466 -0.36387,-1.60374c-0.08086,-0.55255 -0.13477,-1.11857 -0.13477,-1.69807c0,-0.76818 0.08086,-1.5094 0.22911,-2.23714c0.12129,-0.63341 0.30997,-1.23986 0.53907,-1.81936c1.17248,-3.00532 3.58482,-5.40418 6.61709,-6.52276c0.52559,-0.20215 1.07814,-0.3504 1.64417,-0.47169c0.72775,-0.14824 1.49592,-0.22911 2.2641,-0.22911c6.21279,0 11.28006,5.06726 11.28006,11.28006c0,6.21279 -5.05379,11.26658 -11.28006,11.26658z"
                  class="st1"/>
        </g>
        <text stroke="#000"
              transform="matrix(0.6100689172744751,0,0,0.6100689172744751,159.09188175201416,110.17990156263113) "
              font-size="30"
              y="-102.8363" x="-191.47666" stroke-width="0" fill="#ed1f24">€</text>
    </g>
</svg>