<?xml version="1.0" encoding="utf-8"?>
<!-- Generator: Adobe Illustrator 21.0.0, SVG Export Plug-In . SVG Version: 6.00 Build 0)  -->
<svg version="1.1" id="Layer_1" xmlns="http://www.w3.org/2000/svg" xmlns:xlink="http://www.w3.org/1999/xlink" x="0px" y="0px"
	 viewBox="0 0 544 544" style="enable-background:new 0 0 544 544;" xml:space="preserve">
<style type="text/css">
	.st0{fill:#ED1F24;}
	.st1{fill:none;stroke:#58595B;stroke-width:10;stroke-miterlimit:10;stroke-dasharray:39.8972,17.9537;}
</style>
<g>
	<g>
		<path class="st0" d="M277.8,196.4c-3.1-5.5-8.2-5.5-11.4,0l-72.2,125.9c-0.3,0.7-0.4,1.5-0.4,2.3v99c0,3.7,3,6.7,6.7,6.7h142.9
			c3.7,0,6.7-3,6.7-6.7v-99c0-0.8-0.1-1.5-0.4-2.2L277.8,196.4z M272,211.8l19,32.5h-37.1L272,211.8z M211.7,317.9l34.9-60.9h51.5
			v-0.2l34.7,61.1H211.7z M338.2,418.1H207.3v-87.5l28.8,0V403c0,3,2.2,5.5,4.8,5.5h2.9c2.6,0,4.8-2.5,4.8-5.5v-72.4h89.6V418.1z"/>
	</g>
	<path class="st0" d="M332.6,317.9H211.5l-0.3,0.5l121.7-0.1L332.6,317.9z"/>
	<path class="st0" d="M423.9,269.9h-11.5c-2.2-53.1-34-98.7-79.4-120.5h47.6c3,10.2,12.5,17.7,23.7,17.7c13.6,0,24.7-11.1,24.7-24.7
		c0-13.6-11.1-24.7-24.7-24.7c-11.3,0-20.8,7.6-23.8,18h-83.9v-12.6c0-2.6-2.2-4.8-4.8-4.8h-38.7c-2.6,0-4.8,2.2-4.8,4.8v12.6h-85
		c-2.9-10.4-12.5-18-23.8-18c-13.6,0-24.7,11.1-24.7,24.7c0,13.6,11.1,24.7,24.7,24.7c11.2,0,20.6-7.4,23.7-17.7h48.8
		c-45.4,21.8-77.3,67.4-79.4,120.5h-12.1c-2.6,0-4.8,2.2-4.8,4.8v35.5c0,2.6,2.2,4.8,4.8,4.8h35.5c2.6,0,4.8-2.2,4.8-4.8v-35.5
		c0-2.6-2.2-4.8-4.8-4.8h-9.9c2.6-59,45.8-107.5,102.3-118.5v10.3c0,2.6,2.2,4.8,4.8,4.8h38.7c2.6,0,4.8-2.2,4.8-4.8v-10.3
		c56.5,10.9,99.6,59.5,102.3,118.5h-10.6c-2.6,0-4.8,2.2-4.8,4.8v35.5c0,2.6,2.2,4.8,4.8,4.8h35.5c2.6,0,4.8-2.2,4.8-4.8v-35.5
		C428.7,272.1,426.5,269.9,423.9,269.9z M404.3,131.1c6.2,0,11.3,5.1,11.3,11.3c0,6.2-5.1,11.3-11.3,11.3c-6.2,0-11.3-5.1-11.3-11.3
		C393.1,136.2,398.1,131.1,404.3,131.1z M139.7,153.7c-6.2,0-11.3-5.1-11.3-11.3c0-6.2,5.1-11.3,11.3-11.3c6.2,0,11.3,5.1,11.3,11.3
		C151,148.6,145.9,153.7,139.7,153.7z M148,282.7v19.4h-19.4v-19.4H148z M284.2,154h-23.2v-23.2h23.2V154z M415.9,302.2h-19.4v-19.4
		h19.4V302.2z"/>
</g>
<g>
	<circle class="st1" cx="272" cy="272" r="267"/>
</g>
</svg>
