<?xml version="1.0" encoding="utf-8"?>
<!-- Generator: Adobe Illustrator 21.0.0, SVG Export Plug-In . SVG Version: 6.00 Build 0)  -->
<svg version="1.1" id="Layer_1" xmlns="http://www.w3.org/2000/svg" xmlns:xlink="http://www.w3.org/1999/xlink" x="0px" y="0px"
	 viewBox="0 0 544.2 544.4" style="enable-background:new 0 0 544.2 544.4;" xml:space="preserve">
<style type="text/css">
	.st0{fill:none;stroke:#ED1F24;stroke-width:12;stroke-miterlimit:10;}
	.st1{fill:#ED1F24;}
	.st2{fill:none;stroke:#58595B;stroke-width:10;stroke-miterlimit:10;stroke-dasharray:40,18;}
</style>
<g>
	<path class="st0" d="M404.3,362.7h-265c-2.1,0-3.9-1.7-3.9-3.9V141.2c0-2.1,1.7-3.9,3.9-3.9h265c2.1,0,3.9,1.7,3.9,3.9v217.6
		C408.2,360.9,406.5,362.7,404.3,362.7z"/>
	<line class="st0" x1="135.5" y1="302.8" x2="408.2" y2="302.8"/>
	<circle class="st0" cx="271.8" cy="334.1" r="10.7"/>
	<rect x="239.1" y="362.7" class="st0" width="65.4" height="35.6"/>
	<path class="st0" d="M342.9,427.5H200.8c-1.3,0-2.3-1.1-2.3-2.3v-24.5c0-1.3,1.1-2.3,2.3-2.3h142.1c1.3,0,2.3,1.1,2.3,2.3v24.5
		C345.2,426.5,344.2,427.5,342.9,427.5z"/>
</g>
<g>
	<path class="st1" d="M225.1,257.4l-60.3-30.7v-4.5l60.3-30.4v6.6l-52.3,26.1l52.3,26.3V257.4z"/>
</g>
<g>
	<path class="st1" d="M287.7,250.8l52.3-26.3l-52.3-26.1v-6.6l60.3,30.4v4.5l-60.3,30.7V250.8z"/>
</g>
<g>
	<path class="st1" d="M277.3,177.1L242,272h-6.7l35.3-94.8H277.3z"/>
</g>
<g>
	<rect x="349" y="252.1" class="st1" width="8.2" height="8.2"/>
	<rect x="364.5" y="252.1" class="st1" width="8.2" height="8.2"/>
	<rect x="365.4" y="252.1" class="st1" width="8.2" height="8.2"/>
	<rect x="380.1" y="252.1" class="st1" width="8.2" height="8.2"/>
</g>
<circle class="st2" cx="271.8" cy="272.1" r="267"/>
</svg>
