<?xml version="1.0" encoding="utf-8"?>
<!-- Generator: Adobe Illustrator 21.0.0, SVG Export Plug-In . SVG Version: 6.00 Build 0)  -->
<svg version="1.1" id="Layer_1" xmlns="http://www.w3.org/2000/svg" xmlns:xlink="http://www.w3.org/1999/xlink" x="0px" y="0px"
	 viewBox="0 0 544.3 544.3" style="enable-background:new 0 0 544.3 544.3;" xml:space="preserve">
<style type="text/css">
	.st0{fill:#ED1F24;}
	.st1{fill:none;stroke:#58595B;stroke-width:10;stroke-miterlimit:10;stroke-dasharray:40,18;}
</style>
<g>
	<g>
		<path class="st0" d="M176.9,308.5h-35.7c-3.3,0-6,2.7-6,6v102.4c0,3.3,2.7,6,6,6h35.7c3.3,0,6-2.7,6-6V314.5
			C182.9,311.2,180.3,308.5,176.9,308.5z M170.9,410.8h-23.7v-90.4h23.7V410.8z"/>
		<path class="st0" d="M246.4,280.7h-35.7c-3.3,0-6,2.7-6,6v130.1c0,3.3,2.7,6,6,6h35.7c3.3,0,6-2.7,6-6V286.7
			C252.4,283.4,249.8,280.7,246.4,280.7z M240.4,410.8h-23.7V292.7h23.7V410.8z"/>
		<path class="st0" d="M315.9,251.2h-35.7c-3.3,0-6,2.7-6,6v159.6c0,3.3,2.7,6,6,6h35.7c3.3,0,6-2.7,6-6V257.2
			C321.9,253.9,319.2,251.2,315.9,251.2z M309.9,410.8h-23.7V263.2h23.7V410.8z"/>
		<path class="st0" d="M385.4,206.1h-35.7c-3.3,0-6,2.7-6,6v204.7c0,3.3,2.7,6,6,6h35.7c3.3,0,6-2.7,6-6V212.1
			C391.4,208.8,388.7,206.1,385.4,206.1z M379.4,410.8h-23.7V218.1h23.7V410.8z"/>
		<path class="st0" d="M377.7,160.7h12v-47.6h-47.8v12h28C315.1,189.8,263,243.5,133.1,241.7l-0.2,12c2.2,0,4.4,0,6.5,0
			c129.4,0,184.9-56.3,238.3-119.1V160.7z"/>
	</g>
	<circle class="st1" cx="271.8" cy="272.4" r="267"/>
</g>
</svg>
