<?xml version="1.0" encoding="utf-8"?>
<!-- Generator: Adobe Illustrator 21.0.0, SVG Export Plug-In . SVG Version: 6.00 Build 0)  -->
<svg version="1.1" id="Layer_1" xmlns="http://www.w3.org/2000/svg" xmlns:xlink="http://www.w3.org/1999/xlink" x="0px" y="0px"
	 viewBox="0 0 544 544.6" style="enable-background:new 0 0 544 544.6;" xml:space="preserve">
<style type="text/css">
	.st0{fill:none;stroke:#ED1F24;stroke-width:12;stroke-miterlimit:10;}
	.st1{fill:none;stroke:#58595B;stroke-width:10;stroke-miterlimit:10;stroke-dasharray:40,18;}
</style>
<g>
	<g>
		<path class="st0" d="M311.9,306.1c0-4.1-0.3-8.1-0.8-12l16.1-11l-7.1-22l-19.5,0.5c-3.9-7.1-8.7-13.7-14.2-19.5l6.5-18.4
			l-18.7-13.6l-15.4,11.9c-7.2-3.4-14.9-6-23-7.4l-5.5-18.7h-23.1l-5.5,18.7c-8.1,1.5-15.8,4-23,7.4l-15.4-11.9l-18.7,13.6l6.5,18.4
			c-5.5,5.8-10.3,12.4-14.2,19.5l-19.5-0.5l-7.1,22l16.1,11c-0.5,3.9-0.8,7.9-0.8,12c0,4.1,0.3,8.1,0.8,12.1l-16.1,11.1l7.1,22
			l19.5-0.5c3.9,7.1,8.7,13.6,14.2,19.4l-6.6,18.5l18.7,13.6l15.5-11.9c7.2,3.4,14.8,5.9,22.9,7.4l5.5,18.8h23.1l5.5-18.8
			c8-1.5,15.7-4,22.9-7.4l15.5,11.9l18.7-13.6l-6.6-18.5c5.5-5.8,10.3-12.3,14.2-19.4l19.5,0.5l7.1-22l-16.1-11.1
			C311.7,314.3,311.9,310.2,311.9,306.1z"/>
		<circle class="st0" cx="219.9" cy="305.2" r="60.7"/>
	</g>
	<g>
		<path class="st0" d="M421.5,204.5c0.6-2.3,0.9-4.6,1.2-6.9l10.6-4l-1-13.4l-11.1-2.3c-1.2-4.5-3-8.9-5.4-12.9l6.2-9.5l-8.7-10.2
			l-10.3,4.6c-3.6-2.9-7.6-5.4-12-7.3l-0.6-11.3l-13-3.1l-5.7,9.8c-4.8-0.3-9.5,0.1-14,1.1l-7.1-8.8l-12.4,5.1l1.2,11.3
			c-3.9,2.5-7.5,5.6-10.7,9.1l-10.9-3l-7,11.4l7.6,8.4c-0.8,2.1-1.5,4.4-2.1,6.7c-0.6,2.3-0.9,4.6-1.2,6.9l-10.6,4l1,13.4l11.1,2.4
			c1.2,4.5,3,8.9,5.4,12.9l-6.2,9.5l8.7,10.2l10.4-4.6c3.6,2.9,7.6,5.4,11.9,7.3l0.6,11.4l13,3.1l5.7-9.9c4.7,0.3,9.4-0.1,13.9-1.1
			l7.1,8.9l12.4-5.1l-1.2-11.3c3.9-2.5,7.5-5.6,10.6-9l11,3l7-11.4l-7.6-8.4C420.2,209.1,420.9,206.9,421.5,204.5z"/>
		<ellipse transform="matrix(0.2347 -0.9721 0.9721 0.2347 95.8531 505.461)" class="st0" cx="368.9" cy="191.9" rx="34" ry="34"/>
	</g>
</g>
<circle class="st1" cx="271.9" cy="272.3" r="267"/>
</svg>
