<svg width="20" height="20" viewBox="0 0 20 20" fill="none" xmlns="http://www.w3.org/2000/svg">
<mask id="mask0" mask-type="alpha" maskUnits="userSpaceOnUse" x="0" y="0" width="20" height="20">
<rect width="20" height="20" rx="4" fill="white"/>
</mask>
<g mask="url(#mask0)">
<rect width="20" height="20" fill="#C9CAD9"/>
<rect opacity="0.24" x="0.5" y="0.5" width="19" height="19" rx="3.5" stroke="#1E1E1E"/>
<path fill-rule="evenodd" clip-rule="evenodd" d="M7.99995 14.9998C7.98695 14.9998 7.97495 14.9998 7.96195 14.9998C7.66095 14.9878 7.38095 14.8408 7.19995 14.5998L4.19995 10.5998C3.86895 10.1578 3.95795 9.53082 4.39995 9.19982C4.84395 8.86882 5.46995 8.95882 5.79995 9.39982L8.05995 12.4128L14.248 5.34082C14.612 4.92582 15.243 4.88382 15.659 5.24782C16.074 5.61082 16.116 6.24282 15.752 6.65882L8.75195 14.6588C8.56195 14.8758 8.28795 14.9998 7.99995 14.9998" fill="black"/>
<mask id="mask1" mask-type="alpha" maskUnits="userSpaceOnUse" x="4" y="5" width="12" height="10">
<path fill-rule="evenodd" clip-rule="evenodd" d="M7.99995 14.9998C7.98695 14.9998 7.97495 14.9998 7.96195 14.9998C7.66095 14.9878 7.38095 14.8408 7.19995 14.5998L4.19995 10.5998C3.86895 10.1578 3.95795 9.53082 4.39995 9.19982C4.84395 8.86882 5.46995 8.95882 5.79995 9.39982L8.05995 12.4128L14.248 5.34082C14.612 4.92582 15.243 4.88382 15.659 5.24782C16.074 5.61082 16.116 6.24282 15.752 6.65882L8.75195 14.6588C8.56195 14.8758 8.28795 14.9998 7.99995 14.9998" fill="white"/>
</mask>
<g mask="url(#mask1)">
<rect x="2" y="2" width="16" height="16" fill="white"/>
</g>
</g>
</svg>
