<?xml version="1.0" encoding="utf-8"?>
<!-- Generator: Adobe Illustrator 21.0.0, SVG Export Plug-In . SVG Version: 6.00 Build 0)  -->
<svg version="1.1"
		 id="svg2" xmlns:cc="http://creativecommons.org/ns#" xmlns:dc="http://purl.org/dc/elements/1.1/" xmlns:rdf="http://www.w3.org/1999/02/22-rdf-syntax-ns#" xmlns:svg="http://www.w3.org/2000/svg" opacity="0.8"
		 xmlns="http://www.w3.org/2000/svg" xmlns:xlink="http://www.w3.org/1999/xlink" x="0px" y="0px" viewBox="0 0 793 793"
		 style="enable-background:new 0 0 793 793;" xml:space="preserve">
<style type="text/css">
	.st0{clip-path:url(#SVGID_2_);}
	.st1{fill:#FF0000;}
	.st2{fill:none;stroke:#272B2E;stroke-width:10;stroke-opacity:0.5;}
	.st3{fill:none;stroke:#FF0033;stroke-width:10;}
	.st4{fill:#1A1A1A;}
	.st5{font-family:'ArialMT';}
	.st6{font-size:28.2451px;}
</style>
	<g id="g10" transform="matrix(1.3333333,0,0,-1.3333333,0,793.70667)">
	<g id="g12">
		<g>
			<defs>
				<rect id="SVGID_1_" x="-99.1" y="-98.6" width="793" height="793"/>
			</defs>
			<clipPath id="SVGID_2_">
				<use xlink:href="#SVGID_1_"  style="overflow:visible;"/>
			</clipPath>
			<g id="g14" class="st0">
				<g id="g20" transform="translate(331.5296,239.2119)">
					<path id="path22" class="st1" d="M-0.3,0.3l-1.9,4.1c-0.6,1.2-1.3,1.8-2.3,2c-0.8,0.2-1.7,0-2.6-0.4c-2.8-1.3-5.6-2.2-8.3-2.7
						c-2.8-0.5-5.8-0.8-8.8-0.8c-2.4,0-4.7,0.4-6.9,1.2c-2.2,0.8-4.1,2-5.7,3.7c-1.6,1.7-3,3.8-4,6.4c-1,2.6-1.5,5.7-1.5,9.4
						c0,3.5,0.5,6.6,1.5,9.2c1,2.5,2.3,4.6,4,6.2c1.7,1.6,3.7,2.8,6,3.5c2.3,0.8,4.9,1.2,7.6,1.2c2.7,0,5.4-0.3,7.9-1
						c2.5-0.7,5.3-1.8,8.1-3.2c2-0.9,3-0.1,3.5,0.4c0.8,0.9,1.3,1.9,1.7,3c0.3,1,0.5,2.1,0.5,3.1c0,2.4-0.8,4.3-2.3,5.9
						c-1.5,1.4-3.4,2.6-5.6,3.4c-2.2,0.8-4.6,1.3-7.2,1.6c-2.5,0.3-5,0.4-7.3,0.4c-5.3,0-10.1-0.8-14.3-2.4
						c-4.2-1.6-7.8-3.9-10.8-6.9c-2.9-3-5.2-6.6-6.7-10.7c-1.5-4.1-2.3-8.7-2.3-13.7c0-5.7,0.9-10.7,2.5-15c1.7-4.3,4-7.9,7-10.7
						c2.9-2.8,6.5-4.9,10.5-6.3c4-1.4,8.4-2.1,13-2.1c3.7,0,7.6,0.4,11.4,1.2C-9.5-9-5.7-7.5-2.1-5.3c1,0.6,1.7,1.4,2.1,2.4
						C0.4-1.9,0.3-0.8-0.3,0.3"/>
				</g>
				<g id="g24" transform="translate(381.7198,241.691)">
					<path id="path26" class="st1" d="M-0.3,0.3h-25.1v48c0,1.4-0.2,3.3-1.5,4c-0.8,0.4-2,0.7-3.8,0.7h-4.7c-1.9,0-3.2-0.2-3.9-0.7
						c-0.9-0.5-1.4-1.8-1.4-4V-8.8c0-2.2,0.4-3.4,1.4-4c0.8-0.5,2-0.7,3.9-0.7h35c1.4,0,3.3,0.2,4,1.5c0.4,0.8,0.7,2,0.7,3.8V-5
						c0,1.9-0.2,3.2-0.7,3.9C3.1-0.1,1.8,0.3-0.3,0.3"/>
				</g>
				<g id="g28" transform="translate(409.0172,293.6842)">
					<path id="path30" class="st1" d="M-0.4,0.3c-0.8,0.4-2,0.7-3.8,0.7h-4.7c-1.9,0-3.2-0.2-3.9-0.7c-0.9-0.5-1.4-1.8-1.4-4v-57.1
						c0-2.2,0.4-3.4,1.4-4c0.8-0.5,2-0.7,3.9-0.7h4.7c1.7,0,3,0.2,3.8,0.7c1.3,0.7,1.5,2.6,1.5,4v57.1C1.1-2.4,0.9-0.4-0.4,0.3"/>
				</g>
				<g id="g32" transform="translate(477.2791,243.2913)">
					<path id="path34" class="st1" d="M-0.4,0.3c-0.6,1.2-1.3,1.8-2.3,2c-0.8,0.2-1.7,0-2.6-0.4c-2.8-1.3-5.6-2.2-8.3-2.7
						c-2.8-0.5-5.8-0.8-8.8-0.8c-2.4,0-4.7,0.4-6.9,1.2c-2.2,0.8-4.1,2-5.7,3.7c-1.6,1.7-3,3.8-4,6.4c-1,2.6-1.5,5.7-1.5,9.4
						c0,3.5,0.5,6.6,1.5,9.2c1,2.5,2.3,4.6,4,6.2c1.7,1.6,3.7,2.8,6,3.5c2.3,0.8,4.9,1.2,7.6,1.2c2.7,0,5.4-0.3,7.9-1
						c2.5-0.7,5.3-1.8,8.1-3.2c2-0.9,3-0.1,3.5,0.4c0.8,0.9,1.3,1.9,1.7,3c0.3,1,0.5,2.1,0.5,3.1c0,2.4-0.8,4.3-2.3,5.9
						c-1.5,1.4-3.3,2.6-5.6,3.4c-2.2,0.8-4.6,1.3-7.2,1.6c-2.5,0.3-5,0.4-7.3,0.4c-5.3,0-10.1-0.8-14.3-2.4
						c-4.2-1.6-7.8-3.9-10.8-6.9c-2.9-3-5.2-6.6-6.7-10.7c-1.5-4.1-2.3-8.7-2.3-13.7c0-5.7,0.8-10.7,2.5-15c1.7-4.3,4-7.9,7-10.7
						c2.9-2.8,6.5-4.9,10.5-6.3c4-1.4,8.4-2.1,13-2.1c3.7,0,7.6,0.4,11.4,1.2c3.9,0.8,7.7,2.3,11.4,4.6c1,0.6,1.7,1.4,2.1,2.4
						c0.4,1,0.3,2.1-0.3,3.2L-0.4,0.3z"/>
				</g>
				<g id="g36" transform="translate(542.226,233.5272)">
					<path id="path38" class="st1" d="M-0.5,0.3l-19.2,28.8l16,26.5c1.1,1.7,1.4,3.1,0.6,4.2c-0.7,1-2,1.5-3.9,1.5h-6.2
						c-1.8,0-3.1-0.3-3.9-0.8c-0.8-0.5-1.5-1.3-2.3-2.4l-12.8-22.8h-6v21.4c0,1.4-0.2,3.3-1.5,4c-0.8,0.4-2,0.7-3.8,0.7h-4.7
						c-1.9,0-3.2-0.2-4-0.7c-0.9-0.5-1.4-1.8-1.4-4V-0.7c0-2.2,0.4-3.4,1.4-4c0.8-0.5,2-0.7,4-0.7h4.7c1.7,0,3,0.2,3.8,0.7
						c1.3,0.7,1.5,2.6,1.5,4v22.5h3c1,0,1.8-0.2,2.5-0.5c0.6-0.4,1.2-1,1.8-1.9l13.7-21.9c1-1.4,2-2.3,3-2.5
						c0.9-0.2,1.9-0.3,3.1-0.3h8.2c1.9,0,2.7,1,3.1,1.9C0.6-2.2,0.4-1-0.5,0.3"/>
				</g>
				<g id="g40" transform="translate(194.5122,280.6408)">
					<path id="path42" d="M-0.2,0.3c1.4,0,3.3,0.2,4,1.5c0.4,0.8,0.7,2,0.7,3.8v3.3c0,1.9-0.2,3.2-0.7,4c-0.5,0.9-1.8,1.4-4,1.4
						h-34.5c-1.9,0-3.2-0.2-4-0.7c-0.9-0.5-1.4-1.8-1.4-4v-57.2c0-2.2,0.4-3.4,1.4-4c0.8-0.5,2-0.7,4-0.7h34.5c1.4,0,3.3,0.2,4,1.5
						c0.4,0.8,0.7,2,0.7,3.8v3.3c0,1.9-0.2,3.2-0.7,4c-0.5,0.9-1.8,1.4-4,1.4h-24.5v13.4h18.9c1.4,0,3.3,0.2,4,1.5
						c0.4,0.8,0.7,2,0.7,3.8v3.3c0,1.9-0.2,3.2-0.7,4c-0.5,0.9-1.8,1.4-4,1.4h-18.9V0.3H-0.2z"/>
				</g>
				<g id="g44" transform="translate(229.359,241.5467)">
					<path id="path46" d="M-0.2,0.3c-0.7,0-1.6,0-2.6,0.1c-0.7,0-1.4,0.1-1.9,0.1v38.9c3.3,0,6.6-0.1,9.6-0.5
						c3.2-0.4,6.1-1.2,8.6-2.6c2.4-1.3,4.4-3.3,5.8-5.8c1.5-2.6,2.2-6,2.2-10.4c0-3.7-0.5-6.8-1.4-9.3c-0.9-2.4-2.2-4.5-4-6
						C14.3,3.3,12,2.1,9.3,1.4C6.6,0.7,3.4,0.3-0.2,0.3 M34,36.7c-2.2,4.2-5.3,7.5-9.1,9.9c-3.8,2.4-8.2,4.1-13.2,5
						C6.7,52.6,1.3,53-4.2,53h-10.4c-1.6,0-2.7-0.2-3.6-0.5c-1.7-0.7-1.7-3.2-1.7-4.1V-7.5c0-1.5,0.7-2.8,1.9-3.6
						c1.1-0.7,2.5-1.3,4.2-1.6c1.6-0.3,3.4-0.5,5.3-0.6c1.9-0.1,3.8-0.1,5.5-0.1c5.3,0,10.4,0.5,15.2,1.4C17-11,21.3-9.2,25-6.6
						c3.7,2.6,6.8,6.1,9,10.5c2.2,4.4,3.3,10.1,3.3,16.9C37.3,27.2,36.2,32.5,34,36.7"/>
				</g>
				<g id="g48" transform="translate(77.3075,331.5276)">
					<path id="path50" d="M-0.1,0.2L-0.1,0.2l36.3,0l15.5,25.1H25C-4.1,25.3-0.3,1.6-0.1,0.2C-0.1,0.2-0.1,0.2-0.1,0.2"/>
				</g>
				<g id="g52" transform="translate(145.2734,292.4939)">
					<path id="path54" d="M-0.1,0.3c0,0.7,0,17.7,0,27.9L-21.7,22l-3.2-0.9c-0.1,0-0.1,0-0.2,0V2h-43v37.2h0c0,0,0,0,0,0.1
						c-1.4,0.2-25,4-25-25.1V-64c0,0,25.1-4.7,25.1,25.1v15.9h18.8l13.1-25.7C-22.5-75.3-2.4-59.7-2.4-59.7l-18.8,36.8
						C-0.2-21.1,0-6-0.1,0.3"/>
				</g>
				<g id="g56" transform="translate(175.3056,348.5171)">
					<path id="path58" class="st1" d="M-0.2,0.2L-17-12.5l8.8-4.2c1.5-0.7,2.4-2.3,2.2-3.9c-0.1-1.6-1.3-3-2.8-3.5l-23.4-6.7
						L-50.8-36l-2.8-0.8c0,0-0.1,0-0.1,0c-2-0.5-4.1,0.2-5.3,1.8c-1.3,1.7-1.4,3.9-0.3,5.7l4.7,7.6l15.7,25.3l4.1,6.6
						c0.9,1.4,2.5,2.1,4.1,1.8c1.6-0.3,2.8-1.6,3.1-3.2l1.6-9.6L-9,12c1.7,1.3,4.2,1,5.5-0.8l4.2-5.5C1.9,4,1.6,1.5-0.2,0.2"/>
				</g>
			</g>
		</g>
	</g>
</g>
	<text transform="matrix(1 0 0 1 521.2051 362.6465)" class="st4 st5 st6">WEB-AGENCY</text>
</svg>
