<svg width="43" height="43" viewBox="0 0 43 43" fill="none" xmlns="http://www.w3.org/2000/svg">
<ellipse cx="15.3214" cy="13.7143" rx="10.3214" ry="9.71429" fill="#184AA9"/>
<circle cx="29.2857" cy="28.2858" r="9.71429" fill="#2173F0"/>
<circle cx="22" cy="21.0001" r="15.7857" fill="url(#paint0_linear)"/>
<path d="M22.0835 12.5C24.6498 12.5 28.0714 13.7143 27.216 15.3333C26.0468 17.5462 23.7944 15.3333 22.0835 15.3333C20.3727 15.3333 19.5173 16.1429 19.5173 16.9524C19.5173 17.7619 19.945 18.5714 22.0835 19.381C24.2221 20.1905 28.0714 21.4048 28.0714 24.6429C28.0714 27.881 25.0775 29.5 21.2281 29.5C17.7798 29.5 15.2402 27.881 16.0956 26.2619C17.0793 24.4 19.5173 26.6667 21.2281 26.6667C22.9389 26.6667 24.6498 26.2619 24.6498 24.6429C24.6498 23.0238 22.0835 22.619 20.3727 21.8095C18.2341 20.7976 16.0956 19.7857 16.0956 16.9524C16.0956 14.119 19.5173 12.5 22.0835 12.5Z" fill="white"/>
<defs>
<linearGradient id="paint0_linear" x1="9.72223" y1="11.3532" x2="33.4008" y2="31.0854" gradientUnits="userSpaceOnUse">
<stop stop-color="#297AC0"/>
<stop offset="1" stop-color="#48B0F9"/>
</linearGradient>
</defs>
</svg>
