<?xml version="1.0" encoding="utf-8"?>
<!-- Generator: Adobe Illustrator 21.0.0, SVG Export Plug-In . SVG Version: 6.00 Build 0)  -->
<svg version="1.1" id="Layer_1" xmlns="http://www.w3.org/2000/svg" xmlns:xlink="http://www.w3.org/1999/xlink" x="0px" y="0px"
	 viewBox="0 0 544.4 544.6" style="enable-background:new 0 0 544.4 544.6;" xml:space="preserve">
<style type="text/css">
	.st0{fill:none;stroke:#58595B;stroke-width:10;stroke-miterlimit:10;stroke-dasharray:40,18;}
	.st1{fill:#ED1F24;}
</style>
<circle class="st0" cx="272.3" cy="272.7" r="267"/>
<g>
	<g>
		<g>
			<path class="st1" d="M215.5,306.5h-43.8c-3.3,0-6-2.7-6-6v-23.3c0-3.3,2.7-6,6-6h43.8c3.3,0,6,2.7,6,6v23.3
				C221.5,303.8,218.8,306.5,215.5,306.5z M177.8,294.5h31.8v-11.3h-31.8V294.5z"/>
		</g>
		<g>
			<path class="st1" d="M215.5,257.7h-43.8c-3.3,0-6-2.7-6-6v-23.3c0-3.3,2.7-6,6-6h43.8c3.3,0,6,2.7,6,6v23.3
				C221.5,255,218.8,257.7,215.5,257.7z M177.8,245.7h31.8v-11.3h-31.8V245.7z"/>
		</g>
		<g>
			<path class="st1" d="M215.5,355.3h-43.8c-3.3,0-6-2.7-6-6V326c0-3.3,2.7-6,6-6h43.8c3.3,0,6,2.7,6,6v23.3
				C221.5,352.6,218.8,355.3,215.5,355.3z M177.8,343.3h31.8V332h-31.8V343.3z"/>
		</g>
		<g>
			<path class="st1" d="M293.9,306.5h-43.8c-3.3,0-6-2.7-6-6v-23.3c0-3.3,2.7-6,6-6h43.8c3.3,0,6,2.7,6,6v23.3
				C299.9,303.8,297.2,306.5,293.9,306.5z M256.1,294.5h31.8v-11.3h-31.8V294.5z"/>
		</g>
		<g>
			<path class="st1" d="M293.9,257.7h-43.8c-3.3,0-6-2.7-6-6v-23.3c0-3.3,2.7-6,6-6h43.8c3.3,0,6,2.7,6,6v23.3
				C299.9,255,297.2,257.7,293.9,257.7z M256.1,245.7h31.8v-11.3h-31.8V245.7z"/>
		</g>
		<g>
			<path class="st1" d="M293.9,355.3h-43.8c-3.3,0-6-2.7-6-6V326c0-3.3,2.7-6,6-6h43.8c3.3,0,6,2.7,6,6v23.3
				C299.9,352.6,297.2,355.3,293.9,355.3z M256.1,343.3h31.8V332h-31.8V343.3z"/>
		</g>
		<g>
			<path class="st1" d="M372.9,306.5h-43.8c-3.3,0-6-2.7-6-6v-23.3c0-3.3,2.7-6,6-6h43.8c3.3,0,6,2.7,6,6v23.3
				C378.9,303.8,376.2,306.5,372.9,306.5z M335.2,294.5h31.8v-11.3h-31.8V294.5z"/>
		</g>
		<g>
			<path class="st1" d="M372.9,257.7h-43.8c-3.3,0-6-2.7-6-6v-23.3c0-3.3,2.7-6,6-6h43.8c3.3,0,6,2.7,6,6v23.3
				C378.9,255,376.2,257.7,372.9,257.7z M335.2,245.7h31.8v-11.3h-31.8V245.7z"/>
		</g>
		<g>
			<path class="st1" d="M372.9,355.3h-43.8c-3.3,0-6-2.7-6-6V326c0-3.3,2.7-6,6-6h43.8c3.3,0,6,2.7,6,6v23.3
				C378.9,352.6,376.2,355.3,372.9,355.3z M335.2,343.3h31.8V332h-31.8V343.3z"/>
		</g>
	</g>
	<g>
		<g>
			<path class="st1" d="M181,174c0,3.6-2.2,5.7-5,5.7s-5-2-5-5.7v-44.5c0-3.6,2.2-5.7,5-5.7s5,2,5,5.7V174z"/>
		</g>
		<g>
			<path class="st1" d="M277,174c0,3.6-2.2,5.7-5,5.7s-5-2-5-5.7v-44.5c0-3.6,2.2-5.7,5-5.7s5,2,5,5.7V174z"/>
		</g>
		<g>
			<path class="st1" d="M373.7,174c0,3.6-2.2,5.7-5,5.7s-5-2-5-5.7v-44.5c0-3.6,2.2-5.7,5-5.7s5,2,5,5.7V174z"/>
		</g>
	</g>
	<g>
		<g>
			<path class="st1" d="M397.8,421.5h-251c-13.6,0-24.6-11.1-24.6-24.6v-224c0-13.6,11.1-24.6,24.6-24.6h251
				c13.6,0,24.6,11.1,24.6,24.6v224C422.5,410.5,411.4,421.5,397.8,421.5z M146.8,159.6c-7.3,0-13.3,6-13.3,13.3v224
				c0,7.3,6,13.3,13.3,13.3h251c7.3,0,13.3-6,13.3-13.3v-224c0-7.3-6-13.3-13.3-13.3H146.8z"/>
		</g>
	</g>
</g>
</svg>
