<?xml version="1.0" standalone="no"?>
<!DOCTYPE svg PUBLIC "-//W3C//DTD SVG 20010904//EN"
 "http://www.w3.org/TR/2001/REC-SVG-20010904/DTD/svg10.dtd">
<svg version="1.0" xmlns="http://www.w3.org/2000/svg"
 width="652.000000pt" height="423.000000pt" viewBox="0 0 652.000000 423.000000"
 preserveAspectRatio="xMidYMid meet">
<g transform="translate(0.000000,423.000000) scale(0.100000,-0.100000)"
fill="red" stroke="none">
<path d="M2199 4207 c-156 -65 -239 -192 -239 -360 1 -52 7 -99 18 -128 9 -25
113 -231 230 -457 116 -225 212 -413 212 -416 0 -3 -460 -6 -1023 -6 -694 0
-1042 -3 -1082 -11 -121 -22 -217 -92 -276 -201 l-34 -63 0 -450 0 -450 28
-56 c34 -70 119 -152 194 -187 l58 -27 1068 -3 c587 -1 1067 -5 1067 -9 0 -3
-99 -198 -219 -432 -121 -234 -225 -448 -231 -474 -7 -27 -11 -82 -8 -125 8
-138 77 -246 200 -313 62 -33 65 -34 183 -34 l120 1 1870 822 c1029 453 1894
835 1924 850 113 56 211 182 246 318 53 204 -41 437 -216 541 -30 17 -904 404
-1944 859 l-1890 829 -100 3 c-86 2 -108 -1 -156 -21z"/>
</g>
</svg>
