<?xml version="1.0" encoding="utf-8"?>
<!-- Generator: Adobe Illustrator 21.0.0, SVG Export Plug-In . SVG Version: 6.00 Build 0)  -->
<svg version="1.1" id="Layer_1" xmlns="http://www.w3.org/2000/svg" xmlns:xlink="http://www.w3.org/1999/xlink" x="0px" y="0px"
	 viewBox="0 0 137.8 39.3" style="enable-background:new 0 0 137.8 39.3;" xml:space="preserve">
<style type="text/css">
	.st0{fill:#FFFFFF;}
	.st1{font-family:'ArialMT';}
	.st2{font-size:6px;}
	.st3{fill:#FF0000;}
</style>
<text transform="matrix(1 0 0 1 95.1997 14.0875)" class="st0 st1 st2">WEB-AGENCY</text>
<g>
	<path class="st3" d="M78.4,36.1L77.9,35c-0.2-0.3-0.4-0.5-0.6-0.6c-0.2,0-0.5,0-0.7,0.1c-0.8,0.4-1.6,0.6-2.3,0.8
		c-0.8,0.1-1.6,0.2-2.5,0.2c-0.7,0-1.3-0.1-1.9-0.3s-1.1-0.6-1.6-1c-0.5-0.5-0.8-1.1-1.1-1.8c-0.3-0.7-0.4-1.6-0.4-2.6
		s0.1-1.9,0.4-2.6s0.7-1.3,1.1-1.7c0.5-0.4,1-0.8,1.7-1s1.4-0.3,2.1-0.3c0.8,0,1.5,0.1,2.2,0.3c0.7,0.2,1.5,0.5,2.3,0.9
		c0.6,0.3,0.9,0,1-0.1c0.2-0.3,0.4-0.5,0.5-0.8s0.1-0.6,0.1-0.9c0-0.7-0.2-1.2-0.7-1.6c-0.4-0.4-0.9-0.7-1.6-1
		c-0.6-0.2-1.3-0.4-2-0.5s-1.4-0.1-2-0.1c-1.5,0-2.8,0.2-4,0.7s-2.2,1.1-3,1.9s-1.5,1.8-1.9,3s-0.6,2.4-0.6,3.8c0,1.6,0.2,3,0.7,4.2
		s1.1,2.2,2,3c0.8,0.8,1.8,1.4,3,1.8c1.1,0.4,2.4,0.6,3.7,0.6c1,0,2.1-0.1,3.2-0.3s2.2-0.7,3.2-1.3c0.3-0.2,0.5-0.4,0.6-0.7
		C78.6,36.7,78.6,36.4,78.4,36.1z"/>
	<path class="st3" d="M92.5,35.4h-7V21.9c0-0.4,0-0.9-0.4-1.1c-0.2-0.1-0.6-0.2-1.1-0.2h-1.3c-0.5,0-0.9,0.1-1.1,0.2
		c-0.3,0.2-0.4,0.5-0.4,1.1v16c0,0.6,0.1,1,0.4,1.1c0.2,0.1,0.6,0.2,1.1,0.2h9.8c0.4,0,0.9,0,1.1-0.4c0.1-0.2,0.2-0.6,0.2-1.1v-0.9
		c0-0.5-0.1-0.9-0.2-1.1C93.5,35.5,93.1,35.4,92.5,35.4z"/>
	<path class="st3" d="M100.2,20.8c-0.2-0.1-0.6-0.2-1.1-0.2h-1.3c-0.5,0-0.9,0.1-1.1,0.2c-0.3,0.2-0.4,0.5-0.4,1.1v16
		c0,0.6,0.1,1,0.4,1.1c0.2,0.1,0.6,0.2,1.1,0.2h1.3c0.5,0,0.8-0.1,1.1-0.2c0.4-0.2,0.4-0.7,0.4-1.1v-16
		C100.6,21.5,100.5,21,100.2,20.8z"/>
	<path class="st3" d="M119.3,34.9c-0.2-0.3-0.4-0.5-0.6-0.6c-0.2,0-0.5,0-0.7,0.1c-0.8,0.4-1.6,0.6-2.3,0.8
		c-0.8,0.1-1.6,0.2-2.5,0.2c-0.7,0-1.3-0.1-1.9-0.3s-1.1-0.6-1.6-1c-0.5-0.5-0.8-1.1-1.1-1.8c-0.3-0.7-0.4-1.6-0.4-2.6
		s0.1-1.9,0.4-2.6s0.7-1.3,1.1-1.7c0.5-0.4,1-0.8,1.7-1s1.4-0.3,2.1-0.3c0.8,0,1.5,0.1,2.2,0.3c0.7,0.2,1.5,0.5,2.3,0.9
		c0.6,0.3,0.9,0,1-0.1c0.2-0.3,0.4-0.5,0.5-0.8s0.1-0.6,0.1-0.9c0-0.7-0.2-1.2-0.7-1.6c-0.4-0.4-0.9-0.7-1.6-1
		c-0.6-0.2-1.3-0.4-2-0.5s-1.4-0.1-2-0.1c-1.5,0-2.8,0.2-4,0.7s-2.2,1.1-3,1.9s-1.5,1.8-1.9,3s-0.6,2.4-0.6,3.8c0,1.6,0.2,3,0.7,4.2
		s1.1,2.2,2,3c0.8,0.8,1.8,1.4,3,1.8c1.1,0.4,2.4,0.6,3.7,0.6c1,0,2.1-0.1,3.2-0.3s2.2-0.7,3.2-1.3c0.3-0.2,0.5-0.4,0.6-0.7
		s0.1-0.6-0.1-0.9L119.3,34.9z"/>
	<path class="st3" d="M137.6,37.7l-5.4-8.1l4.5-7.4c0.3-0.5,0.4-0.9,0.2-1.2c-0.2-0.3-0.6-0.4-1.1-0.4H134c-0.5,0-0.9,0.1-1.1,0.2
		c-0.2,0.1-0.4,0.4-0.6,0.7l-3.6,6.4H127v-6c0-0.4,0-0.9-0.4-1.1c-0.2-0.1-0.6-0.2-1.1-0.2h-1.3c-0.5,0-0.9,0.1-1.1,0.2
		c-0.3,0.2-0.4,0.5-0.4,1.1V38c0,0.6,0.1,1,0.4,1.1c0.2,0.1,0.6,0.2,1.1,0.2h1.3c0.5,0,0.8-0.1,1.1-0.2c0.4-0.2,0.4-0.7,0.4-1.1
		v-6.3h0.9c0.3,0,0.5,0,0.7,0.1c0.2,0.1,0.3,0.3,0.5,0.5l3.9,6.2c0.3,0.4,0.6,0.6,0.8,0.7c0.2,0.1,0.5,0.1,0.9,0.1h2.3
		c0.5,0,0.8-0.3,0.9-0.5C137.9,38.4,137.8,38,137.6,37.7z"/>
	<g>
		<path class="st0" d="M40,24.4c0.4,0,0.9,0,1.1-0.4c0.1-0.2,0.2-0.6,0.2-1.1V22c0-0.5-0.1-0.9-0.2-1.1c-0.2-0.3-0.5-0.4-1.1-0.4
			h-9.7c-0.5,0-0.9,0.1-1.1,0.2c-0.3,0.2-0.4,0.5-0.4,1.1V38c0,0.6,0.1,1,0.4,1.1c0.2,0.1,0.6,0.2,1.1,0.2H40c0.4,0,0.9,0,1.1-0.4
			c0.1-0.2,0.2-0.6,0.2-1.1v-0.9c0-0.5-0.1-0.9-0.2-1.1c-0.2-0.3-0.5-0.4-1.1-0.4h-6.9v-3.8h5.3c0.4,0,0.9,0,1.1-0.4
			c0.1-0.2,0.2-0.6,0.2-1.1v-0.9c0-0.5-0.1-0.9-0.2-1.1c-0.2-0.3-0.5-0.4-1.1-0.4h-5.3v-3.3H40z"/>
		<g>
			<path class="st0" d="M59.3,25.2c-0.6-1.2-1.5-2.1-2.5-2.8c-1.1-0.7-2.3-1.1-3.7-1.4s-2.9-0.4-4.4-0.4h-2.9c-0.4,0-0.8,0-1,0.1
				c-0.5,0.2-0.5,0.9-0.5,1.1v15.7c0,0.4,0.2,0.8,0.5,1s0.7,0.4,1.2,0.4c0.4,0.1,0.9,0.1,1.5,0.2c0.5,0,1.1,0,1.5,0
				c1.5,0,2.9-0.1,4.3-0.4c1.4-0.3,2.6-0.8,3.6-1.5c1.1-0.7,1.9-1.7,2.5-3c0.6-1.2,0.9-2.8,0.9-4.8C60.3,27.9,59.9,26.4,59.3,25.2z
				 M49.7,35.4c-0.2,0-0.4,0-0.7,0c-0.2,0-0.4,0-0.5,0v-11c0.9,0,1.8,0,2.7,0.1s1.7,0.3,2.4,0.7c0.7,0.4,1.2,0.9,1.6,1.6
				c0.4,0.7,0.6,1.7,0.6,2.9c0,1-0.1,1.9-0.4,2.6c-0.2,0.7-0.6,1.3-1.1,1.7s-1.1,0.8-1.9,1C51.7,35.3,50.7,35.4,49.7,35.4z"/>
		</g>
		<g>
			<path class="st0" d="M7.1,10.2L7.1,10.2h10.2l4.4-7h-7.5C5.9,3.1,7,9.8,7.1,10.2C7,10.2,7.1,10.2,7.1,10.2z"/>
			<path class="st0" d="M26.1,21.1c0-0.2,0-5,0-7.8l-6,1.7l-0.9,0.3l0,0v5.4H7V10.2l0,0l0,0c-0.4-0.1-7-1.2-7,7v22c0,0,7,1.3,7-7
				v-4.5h5.3l3.7,7.2c3.8,7.5,9.5,3.1,9.5,3.1l-5.3-10.4C26.1,27.1,26.2,22.9,26.1,21.1z"/>
		</g>
	</g>
	<path class="st3" d="M35.9,4l-5.2,4l2.7,1.3c0.5,0.2,0.7,0.7,0.7,1.2s-0.4,0.9-0.9,1.1l-7.2,2l-5.8,1.6l-0.9,0.2l0,0
		c-0.6,0.2-1.3-0.1-1.6-0.6c-0.4-0.5-0.4-1.2-0.1-1.8l1.5-2.4L24,2.8l1.3-2.1c0.3-0.4,0.8-0.7,1.3-0.6s0.9,0.5,1,1l0.5,3l5.2-4
		c0.5-0.4,1.3-0.3,1.7,0.2L36.3,2C36.6,2.8,36.5,3.6,35.9,4z"/>
</g>
</svg>
