<svg width="30" height="30" viewBox="0 0 30 30" fill="none" xmlns="http://www.w3.org/2000/svg">
<path fill-rule="evenodd" clip-rule="evenodd" d="M11.249 26.2499C10.8384 26.2499 10.424 26.1149 10.079 25.8392C9.269 25.1924 9.13962 24.013 9.7865 23.203L16.349 14.9999L9.7865 6.79673C9.13962 5.98673 9.269 4.80736 10.079 4.16048C10.8871 3.51548 12.0684 3.64486 12.7134 4.45298L20.2134 13.828C20.7627 14.5142 20.7627 15.4855 20.2134 16.1717L12.7134 25.5467C12.344 26.0099 11.7984 26.2499 11.249 26.2499Z" fill="#272B2E"/>
<mask id="mask0" mask-type="alpha" maskUnits="userSpaceOnUse" x="9" y="3" width="12" height="24">
<path fill-rule="evenodd" clip-rule="evenodd" d="M11.249 26.2499C10.8384 26.2499 10.424 26.1149 10.079 25.8392C9.269 25.1924 9.13962 24.013 9.7865 23.203L16.349 14.9999L9.7865 6.79673C9.13962 5.98673 9.269 4.80736 10.079 4.16048C10.8871 3.51548 12.0684 3.64486 12.7134 4.45298L20.2134 13.828C20.7627 14.5142 20.7627 15.4855 20.2134 16.1717L12.7134 25.5467C12.344 26.0099 11.7984 26.2499 11.249 26.2499Z" fill="white"/>
</mask>
<g mask="url(#mask0)">
<rect width="30" height="30" fill="#272B2E"/>
</g>
</svg>
