<svg width="30" height="30" viewBox="0 0 30 30" fill="none" xmlns="http://www.w3.org/2000/svg">
<path fill-rule="evenodd" clip-rule="evenodd" d="M18.751 26.2499C19.1616 26.2499 19.576 26.1149 19.921 25.8392C20.731 25.1924 20.8604 24.013 20.2135 23.203L13.651 14.9999L20.2135 6.79673C20.8604 5.98673 20.731 4.80736 19.921 4.16048C19.1129 3.51548 17.9316 3.64486 17.2866 4.45298L9.78663 13.828C9.23725 14.5142 9.23725 15.4855 9.78663 16.1717L17.2866 25.5467C17.656 26.0099 18.2016 26.2499 18.751 26.2499Z" fill="#272B2E"/>
<mask id="mask0" mask-type="alpha" maskUnits="userSpaceOnUse" x="9" y="3" width="12" height="24">
<path fill-rule="evenodd" clip-rule="evenodd" d="M18.751 26.2499C19.1616 26.2499 19.576 26.1149 19.921 25.8392C20.731 25.1924 20.8604 24.013 20.2135 23.203L13.651 14.9999L20.2135 6.79673C20.8604 5.98673 20.731 4.80736 19.921 4.16048C19.1129 3.51548 17.9316 3.64486 17.2866 4.45298L9.78663 13.828C9.23725 14.5142 9.23725 15.4855 9.78663 16.1717L17.2866 25.5467C17.656 26.0099 18.2016 26.2499 18.751 26.2499Z" fill="white"/>
</mask>
<g mask="url(#mask0)">
<rect width="30" height="30" transform="matrix(-1 0 0 1 30 0)" fill="#272B2E"/>
</g>
</svg>
