<svg width="21" height="23" viewBox="0 0 21 23" fill="none" xmlns="http://www.w3.org/2000/svg">
<path d="M20.6833 20.2209L15.5244 14.715C16.8619 13.107 17.5784 11.0606 17.5784 8.96541C17.5784 4.04418 13.6137 0 8.78921 0C3.9647 0 0 3.99546 0 8.96541C0 13.8866 3.9647 17.9308 8.78921 17.9308C10.6044 17.9308 12.324 17.3949 13.8048 16.3229L19.0114 21.8776C19.2503 22.1212 19.5369 22.2186 19.8235 22.2186C20.1101 22.2186 20.3967 22.1212 20.6355 21.8776C21.1132 21.439 21.1132 20.6594 20.6833 20.2209ZM8.78921 2.3388C12.3718 2.3388 15.2856 5.31103 15.2856 8.96541C15.2856 12.6198 12.3718 15.592 8.78921 15.592C5.20665 15.592 2.29284 12.6198 2.29284 8.96541C2.29284 5.31103 5.20665 2.3388 8.78921 2.3388Z" fill="red"/>
</svg>
