<svg width="43" height="43" viewBox="0 0 43 43" fill="none" xmlns="http://www.w3.org/2000/svg">
<path fill-rule="evenodd" clip-rule="evenodd" d="M21.5 37.8657C31.1477 37.8657 38.9688 30.2916 38.9688 20.9485C38.9688 11.6054 31.1477 4.03125 21.5 4.03125C11.8523 4.03125 4.03125 11.6054 4.03125 20.9485C4.03125 26.03 6.34476 30.5883 10.0074 33.6893V37.1127C10.0074 38.4507 11.3703 39.3482 12.5854 38.8103L16.3843 37.1288C18.0023 37.6079 19.7201 37.8657 21.5 37.8657Z" fill="url(#paint0_linear)"/>
<path d="M17.3169 17.3523L12.2513 24.2801C11.7082 25.023 12.6849 25.9153 13.4285 25.3557L17.754 22.1005C18.1943 21.7691 18.8115 21.7647 19.2569 22.0896L23.1038 24.8959C23.8415 25.4341 24.8959 25.2793 25.4331 24.554L30.7457 17.3802C31.2966 16.6362 30.3123 15.7366 29.5676 16.3035L24.9946 19.7848C24.5542 20.1201 23.9338 20.1262 23.4863 19.7998L19.6519 17.0026C18.911 16.4622 17.8518 16.6208 17.3169 17.3523Z" fill="white"/>
<defs>
<linearGradient id="paint0_linear" x1="21.5" y1="4.03125" x2="15.8947" y2="38.7784" gradientUnits="userSpaceOnUse">
<stop stop-color="#00B1FF"/>
<stop offset="1" stop-color="#006BFF"/>
</linearGradient>
</defs>
</svg>
